<svg width="16" height="14" viewBox="0 0 16 14" fill="none" xmlns="http://www.w3.org/2000/svg">
<path d="M9.50141 12.0936C9.41072 12.1944 9.33798 12.316 9.28753 12.451C9.23708 12.586 9.20995 12.7318 9.20777 12.8797C9.20558 13.0275 9.22838 13.1743 9.2748 13.3114C9.32123 13.4485 9.39033 13.573 9.47798 13.6775C9.56564 13.7821 9.67004 13.8645 9.78498 13.9199C9.89992 13.9752 10.023 14.0024 10.147 13.9998C10.2709 13.9972 10.3931 13.9649 10.5064 13.9047C10.6196 13.8445 10.7215 13.7578 10.806 13.6496L15.729 7.77799C15.8149 7.67597 15.8831 7.55473 15.9296 7.42122C15.9761 7.28771 16 7.14457 16 7C16 6.85543 15.9761 6.71228 15.9296 6.57878C15.8831 6.44527 15.8149 6.32403 15.729 6.22201L10.806 0.350398C10.7215 0.242233 10.6196 0.155478 10.5064 0.0953054C10.3931 0.0351332 10.2709 0.00277907 10.147 0.000170922C10.023 -0.00243722 9.89992 0.0247541 9.78498 0.0801249C9.67004 0.135496 9.56564 0.217911 9.47798 0.322453C9.39033 0.426996 9.32123 0.551524 9.2748 0.688609C9.22838 0.825694 9.20558 0.972525 9.20777 1.12035C9.20995 1.26817 9.23708 1.41395 9.28753 1.549C9.33798 1.68404 9.41072 1.80559 9.50141 1.90638L12.8491 5.89907L0.923065 5.89907C0.678253 5.89907 0.443467 6.01506 0.270359 6.22153C0.0972506 6.42799 6.69494e-08 6.70802 6.69494e-08 7C6.69494e-08 7.29198 0.0972506 7.57201 0.270359 7.77847C0.443467 7.98494 0.678253 8.10093 0.923065 8.10093L12.8491 8.10093L9.50141 12.0936Z" fill="#383A49" fill-opacity="0.65"/>
</svg>
