<svg width="45" height="44" viewBox="0 0 45 44" fill="none" xmlns="http://www.w3.org/2000/svg">
<path d="M44.1667 21.6354C44.1159 17.5065 42.8863 13.4781 40.6228 10.0246C38.3592 6.57106 35.156 3.83628 31.3902 2.1423C27.6245 0.44832 23.4531 -0.13431 19.3673 0.463025C15.2815 1.06036 11.4515 2.81278 8.32834 5.51392C5.20515 8.21505 2.91886 11.7524 1.73872 15.7094C0.558573 19.6664 0.533724 23.8782 1.6671 27.8488C2.80047 31.8194 5.04487 35.3835 8.13596 38.1213C11.2271 40.8591 15.0361 42.6566 19.1146 43.3021V27.9458H13.6979V21.6354H19.1146V16.8417C18.9892 15.727 19.1101 14.5984 19.4686 13.5356C19.8271 12.4727 20.4145 11.5015 21.1893 10.6905C21.9642 9.87944 22.9076 9.24837 23.953 8.84181C24.9985 8.43524 26.1204 8.26308 27.2396 8.33749C28.8641 8.35974 30.4847 8.5046 32.0875 8.77082V14.1875H29.3792C28.9121 14.1286 28.4379 14.1754 27.9914 14.3244C27.5449 14.4735 27.1375 14.7209 26.7995 15.0485C26.4615 15.3761 26.2015 15.7755 26.0386 16.2171C25.8756 16.6588 25.814 17.1314 25.8583 17.6V21.6896H31.8708L30.8958 28H25.8854V43.1667C31.0039 42.357 35.6627 39.7397 39.0168 35.7894C42.3708 31.8391 44.1979 26.8174 44.1667 21.6354Z" fill="white"/>
</svg>
