<svg width="50" height="50" viewBox="0 0 50 50" fill="none" xmlns="http://www.w3.org/2000/svg">
<path d="M25 35C27.6522 35 30.1957 33.9464 32.0711 32.0711C33.9464 30.1957 35 27.6522 35 25C35 22.3478 33.9464 19.8043 32.0711 17.9289C30.1957 16.0536 27.6522 15 25 15C22.3478 15 19.8043 16.0536 17.9289 17.9289C16.0536 19.8043 15 22.3478 15 25C15 27.6522 16.0536 30.1957 17.9289 32.0711C19.8043 33.9464 22.3478 35 25 35Z" stroke="#F8F8F8" stroke-width="3.75" stroke-linecap="round" stroke-linejoin="round"/>
<path d="M2.5 35V15C2.5 11.6848 3.81696 8.50537 6.16117 6.16117C8.50537 3.81696 11.6848 2.5 15 2.5H35C38.3152 2.5 41.4946 3.81696 43.8388 6.16117C46.183 8.50537 47.5 11.6848 47.5 15V35C47.5 38.3152 46.183 41.4946 43.8388 43.8388C41.4946 46.183 38.3152 47.5 35 47.5H15C11.6848 47.5 8.50537 46.183 6.16117 43.8388C3.81696 41.4946 2.5 38.3152 2.5 35Z" stroke="#F8F8F8" stroke-width="3.75"/>
<path d="M38.75 11.2751L38.775 11.2476" stroke="#F8F8F8" stroke-width="3.75" stroke-linecap="round" stroke-linejoin="round"/>
</svg>
