<svg width="47" height="39" viewBox="0 0 47 39" fill="none" xmlns="http://www.w3.org/2000/svg">
<path d="M42.9218 9.8864C42.9447 10.3104 42.9447 10.7343 42.9447 11.1354C42.9391 13.7444 42.5586 16.3391 41.8149 18.8399C40.2466 24.6039 36.8028 29.6812 32.0275 33.2701C27.2522 36.8589 21.4175 38.7548 15.4447 38.6583C10.1878 38.6642 5.04121 37.1505 0.624512 34.2995C1.39012 34.3937 2.16084 34.4404 2.93222 34.4393C7.28285 34.4433 11.5081 32.9822 14.9268 30.2914C12.9133 30.2536 10.9617 29.5887 9.34408 28.3892C7.72641 27.1897 6.52324 25.5154 5.90222 23.5997C6.50193 23.7025 7.10882 23.7576 7.71722 23.7647C8.58509 23.768 9.4491 23.6492 10.2839 23.4118C8.21621 23.0018 6.3403 21.9244 4.94429 20.3449C3.54827 18.7655 2.70936 16.7715 2.55639 14.6691C2.51763 14.4275 2.50228 14.1827 2.51055 13.9381V13.8212C3.85324 14.5681 5.35633 14.9801 6.89222 15.022C5.56924 14.1411 4.48491 12.9463 3.73596 11.5444C2.987 10.1424 2.59672 8.5769 2.59993 6.98744C2.59843 5.27571 3.04565 3.59348 3.89701 2.10848C6.32401 5.09926 9.35373 7.54532 12.7889 9.28738C16.224 11.0294 19.9876 12.0284 23.8345 12.2193C23.3492 10.1463 23.5617 7.9711 24.4391 6.03123C25.3164 4.09136 26.8095 2.49532 28.6867 1.49079C30.5639 0.486259 32.7201 0.129414 34.8208 0.475632C36.9215 0.821851 38.8492 1.85177 40.3047 3.40557C42.4746 2.9776 44.555 2.18078 46.4556 1.04973C46.5371 2.6904 46.2634 4.32933 45.6531 5.85446C45.0428 7.37958 44.1127 8.75491 42.9218 9.8864Z" fill="#F8F8F8"/>
</svg>
